<?xml version="1.0" encoding="utf-8"?>
<svg version="1.1" id="Layer_1" x="0px" y="0px" width="100%" viewBox="0 0 338 298" enable-background="new 0 0 338 298" xmlns="http://www.w3.org/2000/svg">
  <path opacity="1.000000" stroke="none" d="M 145.777 160.072 C 136.876 147.258 136.522 134.325 146.729 125.261 C 153.192 119.523 166.023 115.218 173.686 117.524 C 182.22 120.092 191.974 129.994 194.041 138.371 C 195.893 145.879 190.361 158.089 183.94 163.893 C 172.198 174.51 158.354 171.302 145.777 160.072 Z" style="fill: rgb(255, 255, 255);"/>
  <path opacity="1.000000" stroke="none" d="M 43.833 117.654 C 63.731 113.952 76.029 120.23 80.388 135.222 C 84.413 149.063 77.576 162.545 63.666 167.759 C 49.037 173.243 37.539 168.416 29.736 156.142 C 20.883 142.217 25.674 129.191 43.833 117.654 Z" style="fill: rgb(255, 255, 255);"/>
  <path opacity="1.000000" stroke="none" d="M 309.486 142.692 C 307.456 158.623 298.73 169.046 284.15 169.238 C 275.498 169.351 262.984 163.815 259.032 157.053 C 254.643 149.543 254.639 135.883 259.022 128.37 C 262.97 121.603 275.478 116.057 284.13 116.162 C 298.717 116.339 307.437 126.768 309.486 142.692 Z" style="fill: rgb(255, 255, 255);"/>
</svg>