<svg version="1.1" id="Layer_1" xmlns="http://www.w3.org/2000/svg" xmlns:xlink="http://www.w3.org/1999/xlink" x="0px" y="0px"
	 width="100%" viewBox="0 0 474 646" enable-background="new 0 0 474 646" xml:space="preserve">
<path fill="#FFFFFF" opacity="1.000000" stroke="none" 
	d="
M284.000000,647.000000 
	C189.333328,647.000000 95.166664,647.000000 1.000000,647.000000 
	C1.000000,431.666656 1.000000,216.333328 1.000000,1.000000 
	C159.000000,1.000000 317.000000,1.000000 475.000000,1.000000 
	C475.000000,216.333328 475.000000,431.666656 475.000000,647.000000 
	C411.500000,647.000000 348.000000,647.000000 284.000000,647.000000 
M188.917633,613.582458 
	C195.419724,618.670044 201.315598,624.953308 208.539932,628.616455 
	C228.541702,638.758484 248.588715,635.545044 268.127838,626.325256 
	C285.082703,618.324951 298.047546,605.595947 310.142670,591.601318 
	C323.182037,576.514099 338.528564,564.062378 358.180298,558.972961 
	C368.378601,556.331848 379.216248,556.023987 389.800018,555.037109 
	C407.196869,553.414917 424.694519,552.479248 441.398163,546.699341 
	C452.387604,542.896667 457.289398,536.144714 457.373169,524.646179 
	C457.397156,521.347961 457.201874,517.880310 456.220673,514.770020 
	C449.869812,494.639038 443.265076,474.588287 436.765259,454.504211 
	C435.442474,450.416809 433.271118,446.341248 433.086945,442.189453 
	C431.514526,406.744659 430.285553,371.284393 429.003693,335.826996 
	C427.905670,305.453217 422.574982,275.957306 410.714722,247.839111 
	C395.164337,210.972351 371.180695,181.167267 336.182159,161.151779 
	C295.540100,137.908829 251.710480,132.028748 205.840805,138.896683 
	C170.814774,144.141052 139.746826,158.175674 113.638992,182.192383 
	C73.827423,218.815231 55.586021,265.821625 50.153828,318.459778 
	C48.053387,338.813110 47.405640,359.319855 46.231632,379.764465 
	C44.231735,414.591492 38.815468,448.869324 30.348364,482.705597 
	C26.719137,497.208771 22.592091,511.676331 22.946712,526.867981 
	C23.188381,537.220581 27.671635,545.420898 37.557934,548.514282 
	C46.809689,551.408997 56.632965,553.064880 66.319397,553.848694 
	C81.909058,555.110168 97.604172,554.999207 113.234665,555.840759 
	C138.511917,557.201660 158.429077,568.377930 172.718185,589.340942 
	C178.059280,597.176636 183.224655,605.132202 188.917633,613.582458 
z"/>
<path fill="#7D7D7D" opacity="1.000000" stroke="none" 
	d="
M188.693909,613.307739 
	C183.224655,605.132202 178.059280,597.176636 172.718185,589.340942 
	C158.429077,568.377930 138.511917,557.201660 113.234665,555.840759 
	C97.604172,554.999207 81.909058,555.110168 66.319397,553.848694 
	C56.632965,553.064880 46.809689,551.408997 37.557934,548.514282 
	C27.671635,545.420898 23.188381,537.220581 22.946712,526.867981 
	C22.592091,511.676331 26.719137,497.208771 30.348364,482.705597 
	C38.815468,448.869324 44.231735,414.591492 46.231632,379.764465 
	C47.405640,359.319855 48.053387,338.813110 50.153828,318.459778 
	C55.586021,265.821625 73.827423,218.815231 113.638992,182.192383 
	C139.746826,158.175674 170.814774,144.141052 205.840805,138.896683 
	C251.710480,132.028748 295.540100,137.908829 336.182159,161.151779 
	C371.180695,181.167267 395.164337,210.972351 410.714722,247.839111 
	C422.574982,275.957306 427.905670,305.453217 429.003693,335.826996 
	C430.285553,371.284393 431.514526,406.744659 433.086945,442.189453 
	C433.271118,446.341248 435.442474,450.416809 436.765259,454.504211 
	C443.265076,474.588287 449.869812,494.639038 456.220673,514.770020 
	C457.201874,517.880310 457.397156,521.347961 457.373169,524.646179 
	C457.289398,536.144714 452.387604,542.896667 441.398163,546.699341 
	C424.694519,552.479248 407.196869,553.414917 389.800018,555.037109 
	C379.216248,556.023987 368.378601,556.331848 358.180298,558.972961 
	C338.528564,564.062378 323.182037,576.514099 310.142670,591.601318 
	C298.047546,605.595947 285.082703,618.324951 268.127838,626.325256 
	C248.588715,635.545044 228.541702,638.758484 208.539932,628.616455 
	C201.315598,624.953308 195.419724,618.670044 188.693909,613.307739 
M191.468674,175.887955 
	C176.718842,180.482056 163.094757,187.345032 150.504959,196.273056 
	C113.125336,222.780701 91.187592,258.672516 86.024910,304.261658 
	C83.310471,328.231537 81.589394,352.322235 79.800842,376.386719 
	C76.741219,417.552979 73.966515,458.740448 71.109093,499.921600 
	C70.616470,507.021179 70.306709,514.133484 69.894966,521.555725 
	C186.221436,521.555725 302.070953,521.555725 418.328979,521.555725 
	C418.037048,519.795227 417.891327,518.329651 417.543518,516.913757 
	C415.241852,507.544006 413.071991,498.137177 410.535675,488.830597 
	C399.156616,447.077332 391.000183,404.988525 393.180786,361.295685 
	C394.081940,343.238922 393.733521,324.946930 391.942474,306.962219 
	C387.244904,259.791779 365.796844,221.554855 326.238098,194.985092 
	C284.967163,167.265320 239.920364,161.139633 191.468674,175.887955 
M264.968750,573.688538 
	C247.831970,573.674194 230.695175,573.657532 213.558395,573.646362 
	C205.460297,573.641113 201.551193,578.073425 203.473022,586.110779 
	C204.360992,589.824402 206.372177,593.602844 208.843292,596.535156 
	C213.988983,602.641052 221.222107,605.446960 228.959167,606.514648 
	C242.218323,608.344238 254.618423,606.378479 264.417511,596.303833 
	C271.049774,589.485107 271.407867,580.549072 264.968750,573.688538 
z"/>
<path fill="#FFFFFF" opacity="1.000000" stroke="none" 
	d="
M191.847168,175.771606 
	C239.920364,161.139633 284.967163,167.265320 326.238098,194.985092 
	C365.796844,221.554855 387.244904,259.791779 391.942474,306.962219 
	C393.733521,324.946930 394.081940,343.238922 393.180786,361.295685 
	C391.000183,404.988525 399.156616,447.077332 410.535675,488.830597 
	C413.071991,498.137177 415.241852,507.544006 417.543518,516.913757 
	C417.891327,518.329651 418.037048,519.795227 418.328979,521.555725 
	C302.070953,521.555725 186.221436,521.555725 69.894966,521.555725 
	C70.306709,514.133484 70.616470,507.021179 71.109093,499.921600 
	C73.966515,458.740448 76.741219,417.552979 79.800842,376.386719 
	C81.589394,352.322235 83.310471,328.231537 86.024910,304.261658 
	C91.187592,258.672516 113.125336,222.780701 150.504959,196.273056 
	C163.094757,187.345032 176.718842,180.482056 191.847168,175.771606 
z"/>
<path fill="#FEFEFE" opacity="1.000000" stroke="none" 
	d="
M265.402008,573.784180 
	C271.407867,580.549072 271.049774,589.485107 264.417511,596.303833 
	C254.618423,606.378479 242.218323,608.344238 228.959167,606.514648 
	C221.222107,605.446960 213.988983,602.641052 208.843292,596.535156 
	C206.372177,593.602844 204.360992,589.824402 203.473022,586.110779 
	C201.551193,578.073425 205.460297,573.641113 213.558395,573.646362 
	C230.695175,573.657532 247.831970,573.674194 265.402008,573.784180 
z"/>
</svg>