<?xml version="1.0" encoding="utf-8"?>
<svg version="1.1" id="Layer_1" x="0px" y="0px" width="100%" viewBox="0 0 144 160" enable-background="new 0 0 144 160" xmlns="http://www.w3.org/2000/svg">
  <path opacity="1.000000" stroke="none" d="M 96.903 49.134 C 111.522 65.616 113.309 85.587 102.093 102.018 C 91.568 117.435 71.777 123.783 52.066 117.562 C 47.459 116.109 43.377 116.439 38.988 117.524 C 35.585 118.368 32.124 119.032 28.654 119.556 C 27.502 119.729 26.242 119.22 22.905 118.675 C 30.194 104.283 23.367 90.276 23.797 76.186 C 24.309 59.346 33.428 46.588 49.967 40.313 C 66.935 33.876 82.644 36.885 96.903 49.134 M 101.278 72.401 C 94.825 52.135 78.698 41.51 59.638 44.967 C 41.82 48.198 29.437 64.317 31.666 82.841 C 32.74 91.791 37.166 100.345 33.383 109.787 C 40.663 110.552 46.078 108.017 52 109.808 C 80.984 118.567 102.056 103.091 101.278 72.401 Z" style="fill: rgb(125, 125, 125);"/>
  <path opacity="1.000000" stroke="none" d="M 58.185 74.976 C 54.536 74.788 51.364 75.168 50.534 72.262 C 47.72 67.813 78.793 67.457 80.556 71.838 C 79.862 77.161 66.688 74.174 58.185 74.976 Z" style="fill: rgb(125, 125, 125);"/>
  <path opacity="1.000000" stroke="none" d="M 50.983 83.875 C 56.544 83.611 63.329 83.518 68.117 83.623 C 69.861 83.66 71.244 84.749 71.184 86.31 C 71.152 87.218 70.173 88.778 69.419 88.879 C 63.456 89.683 57.311 90.613 51.626 88.235 C 49.405 87.306 48.606 85.369 50.983 83.875 Z" style="fill: rgb(125, 125, 125);"/>
</svg>